<svg width="1024" height="110" viewBox="0 0 1024 110" fill="none" xmlns="http://www.w3.org/2000/svg">
<path fill-rule="evenodd" clip-rule="evenodd" d="M0.859619 110L57.9731 97.7446C114.234 85.4891 228.461 60.9783 341.835 59.2275C455.21 57.4767 569.437 78.486 682.811 87.2399C796.186 95.9938 910.413 92.4922 966.674 90.7415L1023.79 88.9907V25.9627H966.674C910.413 25.9627 796.186 25.9627 682.811 25.9627C569.437 25.9627 455.21 25.9627 341.835 25.9627C228.461 25.9627 114.234 25.9627 57.9731 25.9627H0.859619V110Z" fill="#F6D6D4"/>
<path fill-rule="evenodd" clip-rule="evenodd" d="M1023.86 68.323L966.746 58.3592C910.485 48.3954 796.258 28.4679 682.884 27.0445C569.509 25.6211 455.282 42.7019 341.908 49.8188C228.534 56.9358 114.307 54.089 58.0457 52.6656L0.932263 51.2422V-4.76837e-07H58.0457C114.307 -4.76837e-07 228.534 -4.76837e-07 341.908 -4.76837e-07C455.282 -4.76837e-07 569.509 -4.76837e-07 682.884 -4.76837e-07C796.258 -4.76837e-07 910.485 -4.76837e-07 966.746 -4.76837e-07H1023.86V68.323Z" fill="#E1F1EE"/>
</svg>
